<?xml version="1.0" encoding="UTF-8"?>
<!DOCTYPE svg PUBLIC "-//W3C//DTD SVG 1.1//EN" "http://www.w3.org/Graphics/SVG/1.1/DTD/svg11.dtd">
<!-- Creator: CorelDRAW X8 -->
<svg xmlns="http://www.w3.org/2000/svg" xml:space="preserve" width="512px" height="512px" version="1.1" style="shape-rendering:geometricPrecision; text-rendering:geometricPrecision; image-rendering:optimizeQuality; fill-rule:evenodd; clip-rule:evenodd"
viewBox="0 0 512 512"
 xmlns:xlink="http://www.w3.org/1999/xlink">
 <defs>
  <style type="text/css">
   <![CDATA[
    .str0 {stroke:#2B2A29;stroke-width:0.900003}
    .fil1 {fill:#D74B1F}
    .fil7 {fill:#FEFEFE;fill-rule:nonzero}
    .fil3 {fill:#F8AD03;fill-rule:nonzero}
    .fil2 {fill:#9F6628;fill-rule:nonzero}
    .fil0 {fill:#333333;fill-rule:nonzero}
    .fil5 {fill:url(#id5)}
    .fil4 {fill:url(#id6)}
    .fil6 {fill:url(#id7)}
   ]]>
  </style>
    <clipPath id="id0">
     <path d="M295 339l1 0 -1 0 0 0 0 0z"/>
    </clipPath>
    <clipPath id="id1">
     <path d="M232 302l38 -22 0 -1 -48 -29 0 46 10 6 0 0z"/>
    </clipPath>
    <clipPath id="id2">
     <path d="M270 279l0 -12 -45 -26 -3 1 0 8 48 29 0 0z"/>
    </clipPath>
    <clipPath id="id3">
     <path d="M270 279l0 0 -48 -29 0 0 48 29 0 0z"/>
    </clipPath>
    <clipPath id="id4">
     <path d="M223 307l9 -5 -10 -6 1 11 0 0z"/>
    </clipPath>
  <linearGradient id="id5" gradientUnits="userSpaceOnUse" x1="238.84" y1="248.456" x2="224.42" y2="248.929">
   <stop offset="0" style="stop-opacity:1; stop-color:#52435C"/>
   <stop offset="0.121569" style="stop-opacity:1; stop-color:#52435C"/>
   <stop offset="0.831373" style="stop-opacity:1; stop-color:#393F3C"/>
   <stop offset="1" style="stop-opacity:1; stop-color:#393F3C"/>
  </linearGradient>
  <linearGradient id="id6" gradientUnits="userSpaceOnUse" x1="270.171" y1="258.155" x2="219.714" y2="333.59">
   <stop offset="0" style="stop-opacity:1; stop-color:#FFD500"/>
   <stop offset="0.0509804" style="stop-opacity:1; stop-color:#FFD500"/>
   <stop offset="0.831373" style="stop-opacity:1; stop-color:#E1941C"/>
   <stop offset="1" style="stop-opacity:1; stop-color:#E1941C"/>
  </linearGradient>
  <linearGradient id="id7" gradientUnits="userSpaceOnUse" xlink:href="#id5" x1="231.945" y1="288.004" x2="252.019" y2="311.615">
  </linearGradient>
 </defs>
 <g id="Capa_x0020_1">
  <metadata id="CorelCorpID_0Corel-Layer"/>
  <polygon class="fil0" points="0,512 512,512 512,0 0,0 "/>
  <circle class="fil1 str0" cx="256" cy="256" r="175"/>
  <g id="_1693486261216">
   <g style="clip-path:url(#id0)">
    <image transform="matrix(-0.584448 0.0191587 0.0204192 0.622899 296.567 337.564)" x="0" y="0" width="4.16694" height="4.16694" xlink:href="icon_Images\icon_ImgID1.png"/>
   </g>
   <g style="clip-path:url(#id1)">
    <image transform="matrix(-12.0427 0.394771 0.425021 12.9655 269.721 247.66)" x="0" y="0" width="4.16694" height="4.16694" xlink:href="icon_Images\icon_ImgID2.png"/>
   </g>
   <g style="clip-path:url(#id2)">
    <image transform="matrix(-12.0427 0.394771 0.33427 10.1971 270.197 237.701)" x="0" y="0" width="4.16694" height="4.16694" xlink:href="icon_Images\icon_ImgID3.png"/>
   </g>
   <g style="clip-path:url(#id3)">
    <image transform="matrix(-11.8505 0.388469 0.262424 8.0054 269.695 246.86)" x="0" y="0" width="4.16694" height="4.16694" xlink:href="icon_Images\icon_ImgID4.png"/>
   </g>
   <g style="clip-path:url(#id4)">
    <image transform="matrix(-3.00683 0.0985667 0.111171 3.39134 233.556 294.237)" x="0" y="0" width="4.16694" height="4.16694" xlink:href="icon_Images\icon_ImgID5.png"/>
   </g>
   <polygon class="fil2" points="276,348 295,339 294,274 275,283 "/>
   <polygon class="fil3" points="275,283 294,274 231,237 212,246 "/>
   <polygon class="fil4" points="212,246 213,311 276,348 275,283 "/>
   <path class="fil5" d="M224 249c0,2 4,4 8,4 4,0 7,-2 7,-5 0,-2 -4,-3 -8,-3 -3,0 -7,2 -7,4z"/>
   <path class="fil6" d="M235 288c0,-4 2,-5 6,-3 3,2 6,7 6,11 0,3 -1,5 -4,4l3 13 -9 -5 2 -11c-2,-2 -4,-6 -4,-9z"/>
   <path class="fil0" d="M138 164l6 1 -3 -1c-1,0 -2,0 -3,0zm-1 1l12 2 -5 -2 -6 -1c0,0 -1,1 -1,1zm0 0l17 3 -5 -1 -12 -2c0,0 0,0 0,0zm-1 1l22 3 -4 -1 -17 -3c-1,0 -1,0 -1,1zm0 0l27 5 -5 -2 -22 -3c0,0 0,0 0,0zm-1 1l33 5 -5 -1 -27 -5c0,0 -1,0 -1,1zm0 0l38 6 -5 -1 -33 -5c0,0 0,0 0,0zm0 1l42 7 -4 -2 -38 -6c0,0 0,0 0,1zm0 0l47 8 -5 -1 -42 -7c0,0 0,0 0,0zm0 1l52 8 -5 -1 -47 -8c0,0 0,0 0,1zm0 0l56 10 -4 -2 -52 -8 0 0 0 0zm0 1l61 10 -5 -1 -56 -10 0 1zm0 0l66 12 -5 -2 -61 -10 0 0zm0 1l71 12 -5 -1 -66 -12 0 1zm0 0l75 13 -4 -1 -71 -12 0 0zm0 1l80 14 -5 -2 -75 -13 0 1zm0 0l85 15 -5 -1 -80 -14 0 0zm0 1l90 15 -5 -1 -85 -15 0 1zm0 1l94 16 -4 -2 -90 -15 0 1zm0 0l99 17 -5 -1 -94 -16 0 0zm0 1l104 17 -5 -1 -99 -17 0 1zm0 0l108 19 -4 -2 -104 -17 0 0zm0 1l113 19 -5 -1 -108 -19 0 1zm0 0l118 20 -5 -1 -113 -19 0 0zm0 1l123 21 -5 -2 -118 -20 0 1zm0 0l127 22 -4 -1 -123 -21 0 0zm0 1l132 22 -5 -1 -127 -22 0 1zm0 0l137 24 -5 -2 -132 -22 0 0zm0 1l141 24 -4 -1 -137 -24 0 1zm0 0l146 25 -5 -1 -141 -24 0 0zm0 1l151 26 -5 -2 -146 -25 0 1zm0 1l156 26 -5 -1 -151 -26 0 1zm0 0l160 27 -4 -1 -156 -26 0 0zm0 1l165 28 -5 -2 -160 -27 0 1zm0 0l170 29 -5 -1 -165 -28 0 0zm0 1l175 29 -5 -1 -170 -29 0 1zm0 0l179 31 -4 -2 -175 -29 0 0zm0 1l184 31 -5 -1 -179 -31 0 1zm0 0l189 32 -5 -1 -184 -31 0 0zm0 1l193 33 -4 -2 -189 -32 0 1zm0 0l198 34 -5 -1 -193 -33 0 0zm0 1l203 34 -5 -1 -198 -34 0 1zm0 0l208 36 -5 -2 -203 -34 0 0zm0 1l212 36 -4 -1 -208 -36 0 1zm0 1l217 36 -5 -1 -212 -36 0 1zm0 0l222 38 -5 -2 -217 -36 0 0zm0 1l227 38 -5 -1 -222 -38 0 1zm0 0l231 39 -4 -1 -227 -38 0 0zm0 1l236 40 -5 -2 -231 -39 0 1zm0 0l240 41c-1,0 -1,0 -1,0l-3 -1 -236 -40 0 0zm0 1l241 41c-1,-1 -1,-1 -1,-1l-240 -41 0 1zm0 0l241 41c0,0 0,0 0,0l-241 -41 0 0zm0 1l242 41c0,0 -1,-1 -1,-1l-241 -41 0 1zm0 0l242 41c0,0 0,0 0,0l-242 -41 0 0zm0 1l242 41c0,0 0,0 0,-1l-242 -41 0 1zm0 0l242 42c0,-1 0,-1 0,-1l-242 -41 0 0zm0 1l242 41 0 0c0,0 0,0 0,0l-242 -42 0 1zm0 1l242 41 0 -1 -242 -41 0 1zm0 0l242 41 0 0 -242 -41 0 0zm0 1l242 41 0 -1 -242 -41 0 1zm0 0l242 41 0 0 -242 -41 0 0zm0 1l242 41 0 -1 -242 -41 0 1zm0 0l242 41 0 0 -242 -41 0 0zm0 1l242 41 0 -1 -242 -41 0 1zm0 0l242 41 0 0 -242 -41 0 0zm0 1l242 41 0 -1 -242 -41 0 1zm0 0l242 42 0 -1 -242 -41 0 0zm0 1l242 41 0 0 -242 -42 0 1zm0 0l242 42 0 -1 -242 -41 0 0zm0 1l242 41 0 0 -242 -42 0 1zm0 1l242 41 0 -1 -242 -41 0 1zm0 0l242 41 0 0 -242 -41 0 0zm0 1l242 41 0 -1 -242 -41 0 1zm0 0l242 41 0 0 -242 -41 0 0zm0 1l242 41 0 -1 -242 -41 0 1zm0 0l242 41 0 0 -242 -41 0 0zm0 1l242 41 0 -1 -242 -41 0 1zm0 0l242 41 0 0 -242 -41 0 0zm0 1l242 41 0 -1 -242 -41 0 1zm0 0l242 42 0 -1 -242 -41 0 0zm0 1l242 41 0 0 -242 -42 0 1zm0 0l242 42 0 -1 -242 -41 0 0zm0 1l242 41 0 0 -242 -42 0 1zm0 1l242 41 0 -1 -242 -41 0 1zm0 0l242 41 0 0 -242 -41 0 0zm0 1l242 41 0 -1 -242 -41 0 1zm0 0l242 41 0 0 -242 -41 0 0zm0 1l242 41 0 -1 -242 -41 0 1zm0 0l242 41 0 0 -242 -41 0 0zm0 1l242 41 0 -1 -242 -41 0 1zm0 0l242 41 0 0 -242 -41 0 0zm0 1l242 41 0 -1 -242 -41 0 1zm0 0l242 42 0 -1 -242 -41 0 0zm0 1l242 41 0 0 -242 -42 0 1zm0 0l242 42 0 -1 -242 -41 0 0zm0 1l242 41 0 0 -242 -42 0 1zm0 1l242 41 0 -1 -242 -41 0 1zm0 0l242 41 0 0 -242 -41 0 0zm0 1l242 41 0 -1 -242 -41 0 1zm0 0l242 41 0 0 -242 -41 0 0zm0 1l242 41 0 -1 -242 -41 0 1zm0 0l242 41 0 0 -242 -41 0 0zm0 1l242 41 0 -1 -242 -41 0 1zm0 0l242 41 0 0 -242 -41 0 0zm0 1l242 41 0 -1 -242 -41 0 1zm0 0l242 42 0 -1 -242 -41 0 0zm0 1l242 41 0 0 -242 -42 0 1zm0 1l242 41 0 -1 -242 -41 0 1zm0 0l242 41 0 0 -242 -41 0 0zm0 1l242 41 0 -1 -242 -41 0 0c0,0 0,0 0,1zm0 0l242 41 0 0 -242 -41c0,0 0,0 0,0zm0 1l242 41 0 -1 -242 -41c0,0 0,1 0,1zm0 0l242 41 0 0 -242 -41c0,0 0,0 0,0zm1 1l241 41 0 -1 -242 -41c0,0 1,1 1,1zm0 1l241 40 0 0 -241 -41c0,0 0,0 0,1zm1 0l240 41 0 -1 -241 -40c1,0 1,0 1,0zm4 1l236 40 0 0 -240 -41c1,0 1,0 1,1l3 0zm5 2l231 39 0 -1 -236 -40 5 2zm5 1l226 39 0 -1 -231 -39 5 1zm4 1l222 38 0 0 -226 -39 4 1zm5 2l217 37 0 -1 -222 -38 5 2zm5 1l212 36 0 0 -217 -37 5 1zm4 1l208 36 0 -1 -212 -36 4 1zm5 2l203 34 0 0 -208 -36 5 2zm5 1l198 34 0 -1 -203 -34 5 1zm5 1l193 33 0 0 -198 -34 5 1zm4 2l189 32 0 -1 -193 -33 4 2zm5 1l184 31 0 0 -189 -32 5 1zm5 2l179 30 0 -1 -184 -31 5 2zm5 1l174 29 0 0 -179 -30 5 1zm4 1l170 29 0 -1 -174 -29 4 1zm5 2l165 28 0 -1 -170 -29 5 2zm5 1l160 27 0 0 -165 -28 5 1zm4 1l156 27 0 -1 -160 -27 4 1zm5 2l151 25 0 0 -156 -27 5 2zm5 1l146 25 0 -1 -151 -25 5 1zm5 1l141 24 0 0 -146 -25 5 1zm4 2l137 23 0 -1 -141 -24 4 2zm5 1l132 22 0 0 -137 -23 5 1zm5 1l127 22 0 -1 -132 -22 5 1zm5 2l122 20 0 0 -127 -22 5 2zm4 1l118 20 0 -1 -122 -20 4 1zm5 1l113 19 0 0 -118 -20 5 1zm5 2l108 18 0 -1 -113 -19 5 2zm4 1l104 18 0 -1 -108 -18 4 1zm5 1l99 17 0 0 -104 -18 5 1zm5 2l94 16 0 -1 -99 -17 5 2zm5 1l89 15 0 0 -94 -16 5 1zm4 1l85 15 0 -1 -89 -15 4 1zm5 2l80 13 0 0 -85 -15 5 2zm5 1l75 13 0 -1 -80 -13 5 1zm5 1l70 12 0 0 -75 -13 5 1zm4 2l66 11 0 -1 -70 -12 4 2zm5 1l61 10 0 0 -66 -11 5 1zm5 1l56 10 0 -1 -61 -10 5 1zm4 2l52 8 0 0 0 0 -56 -10 4 2zm5 1l47 8c0,0 0,0 0,-1l-52 -8 5 1zm5 1l42 8c0,-1 0,-1 0,-1l-47 -8 5 1zm5 2l37 6c0,0 0,0 0,0l-42 -8 5 2zm4 1l33 6c0,-1 0,-1 0,-1l-37 -6 4 1zm5 1l27 5c0,0 1,0 1,0l-33 -6 5 1zm5 2l22 4c0,-1 0,-1 0,-1l-27 -5 5 2zm5 1l16 3c1,0 1,0 1,0l-22 -4 5 1zm4 1l12 2c0,0 0,0 0,0l-16 -3 4 1zm5 2l6 1c0,0 0,0 1,-1l-12 -2 5 2zm6 1l-6 -1 3 1c1,0 2,0 3,0z"/>
   <path class="fil7" d="M279 276c2,0 4,-2 4,-4l-1 -26c0,-13 -12,-30 -28,-38 -9,-6 -18,-7 -24,-4 -4,3 -6,7 -6,13l1 14c0,2 2,4 4,4 2,0 4,-2 4,-4l-1 -14c0,-3 1,-5 2,-6 3,-1 8,-1 16,3 13,8 24,22 24,32l1 26c0,2 2,4 4,4z"/>
  </g>
 </g>
</svg>
